<mxfile host="app.diagrams.net" modified="2022-04-28T05:50:08.239Z" agent="5.0 (Windows NT 10.0; Win64; x64) AppleWebKit/537.36 (KHTML, like Gecko) Chrome/99.0.4844.51 Safari/537.36" etag="7s5JypqcHcL_s55oqYfE" version="17.2.4" type="github">
  <diagram id="6nroXhzHqXDf4n0dbmEr" name="第 1 页">
    <mxGraphModel dx="1422" dy="762" grid="1" gridSize="10" guides="1" tooltips="1" connect="1" arrows="1" fold="1" page="1" pageScale="1" pageWidth="827" pageHeight="1169" math="0" shadow="0">
      <root>
        <mxCell id="0" />
        <mxCell id="1" parent="0" />
        <mxCell id="phjD3vrbrcSyOuB8pBKA-1" value="" style="edgeStyle=orthogonalEdgeStyle;shape=connector;rounded=0;sketch=1;jumpSize=6;orthogonalLoop=1;jettySize=auto;html=1;shadow=0;labelBackgroundColor=default;fontFamily=Helvetica;fontSize=11;fontColor=default;endArrow=classic;strokeColor=default;strokeWidth=1;" edge="1" parent="1" source="phjD3vrbrcSyOuB8pBKA-2" target="phjD3vrbrcSyOuB8pBKA-4">
          <mxGeometry relative="1" as="geometry" />
        </mxCell>
        <mxCell id="phjD3vrbrcSyOuB8pBKA-2" value="" style="rounded=0;whiteSpace=wrap;html=1;shadow=0;glass=0;sketch=1;fillColor=#ffe6cc;strokeColor=#d79b00;" vertex="1" parent="1">
          <mxGeometry x="310" y="80" width="120" height="60" as="geometry" />
        </mxCell>
        <mxCell id="phjD3vrbrcSyOuB8pBKA-3" value="" style="edgeStyle=orthogonalEdgeStyle;shape=connector;rounded=0;sketch=1;jumpSize=6;orthogonalLoop=1;jettySize=auto;html=1;shadow=0;labelBackgroundColor=default;fontFamily=Helvetica;fontSize=11;fontColor=default;endArrow=classic;strokeColor=default;strokeWidth=1;" edge="1" parent="1" source="phjD3vrbrcSyOuB8pBKA-4" target="phjD3vrbrcSyOuB8pBKA-5">
          <mxGeometry relative="1" as="geometry" />
        </mxCell>
        <mxCell id="phjD3vrbrcSyOuB8pBKA-4" value="" style="whiteSpace=wrap;html=1;fillColor=#ffe6cc;strokeColor=#d79b00;rounded=0;shadow=0;glass=0;sketch=1;" vertex="1" parent="1">
          <mxGeometry x="310" y="220" width="120" height="60" as="geometry" />
        </mxCell>
        <mxCell id="phjD3vrbrcSyOuB8pBKA-5" value="" style="rhombus;whiteSpace=wrap;html=1;fillColor=#ffe6cc;strokeColor=#d79b00;rounded=0;shadow=0;glass=0;sketch=1;" vertex="1" parent="1">
          <mxGeometry x="330" y="320" width="80" height="80" as="geometry" />
        </mxCell>
      </root>
    </mxGraphModel>
  </diagram>
</mxfile>
